<svg xmlns="http://www.w3.org/2000/svg" width="1365" height="349" fill="none">
  <path stroke="#647CE9" stroke-linecap="round" stroke-width="6" d="M-152 182.966c10.002 0 29.06 15.176 29.06 15.176l39.232 16.952s30.902 12.204 51.501 17.275c22.053 5.429 57.475 8.879 57.475 8.879 73.383 5.818 145.075 20.465 185.986-30.674 7.159-8.949 9.912-24.702-5.812-24.702-15.856 0-23.021 3.846-36.326 10.171-22.813 10.846-44.174 27.328-47.788 43.591-4.915 22.119-9.415 62.537 5.651 81.369 22.68 28.35 113.335 24.54 113.335 24.54s91.988-2.333 149.499-13.723c24.706-4.893 62.641-15.338 62.641-15.338l78.463-29.544 96.155-39.438s30.441-15.908 50-26c29.024-14.976 74.5-38 74.5-38s37.469-16.79 61.5-27.5c30.515-13.601 78.193-34.706 78.193-34.706s44.57-16.103 66.839-24.056c17.126-6.116 35.537-9.174 52.306-16.629 20.25-8.999 63.77-18.081 63.77-18.081s42.4-12.798 69.91-19.697c50.47-12.657 178.86-25.79 220.98-39.831"/>
</svg>
